<?xml version="1.0" encoding="UTF-8"?>
<svg id="Layer_1" data-name="Layer 1" xmlns="http://www.w3.org/2000/svg" viewBox="0 0 514.28 75">
  <g>
    <path d="M73.94,12.82c4.08,4.27,5.63,10.07,5.04,15.9-.05.45.16.98-.29,1.28-2.37.29-4.3,1.99-4.92,4.28-.46,1.73-.25,3.31.02,5.04.05.33.28.87.18,1.15-.02.06-.96.61-1.12.73-.7.51-1.46,1.35-1.75,2.17-.07.21-.17.93-.25,1.03-.16.22-1.73,1.35-2.04,1.53-1.15.66-.64-.1-.42-.7.65-1.75.99-3.53,1.17-5.4.05-.53-.02-1.64.09-2.05.07-.26.94-1.45,1.15-1.85,3.2-6.07,3.85-14.59-1.52-19.64-5.52-5.18-13.16-3.23-18.23,1.49-.29.27-.84,1.08-1.2,1.04-.16-.02-.27-.16-.5-.15-.37.01-1.31.98-1.57,1.29-.86,1-1.35,2.15-1.85,3.35-.13-.08-.22-.13-.31-.26-.42-.6-.8-1.85-1.21-2.57-.48-.86-.71-.23-1.19.12-.13.09-.81.57-.89.61-.54.21-.03-.82.08-1.06,5.42-12.13,21.59-17.78,31.54-7.34Z"/>
    <path d="M36.52,62.1c2.63-2.75,3.65-6.55,8.33-6.03.47.05,1.32.48,1.7.41.3-.05.53-.56.73-.77,1.38-1.5,2.92-1.4,4.28.07.23.25.35.65.72.77l1.56-.48c5.93-.87,6.68,6.59,11.15,8.03,3.29,1.06,5-1.47,5.69-4.25.31-1.26.58-4.74,1.85-5.36.14-.07.27-.04.34-.07,1.03-.45,1.98-.43,3.1-.08s-.26.64-.66.85c-2.2,1.18-1.92,3.71-2.24,5.82-.4,2.64-1.18,5.49-3.83,6.65-3.72,1.64-6.35-.49-8.49-3.31s-3.13-5.83-7.32-5.87c-.44,0-2.38.17-2.52.62-.36,1.18,1.49.41,2.09.38.89-.05,2.29.2,3.08.63.22.12,1.16.87,1.22,1.06.18.59-.64,1.78-1.09,2.16-.63.52-1.41.77-2.22.85-2.04.19-3.16-2.12-5.41-1.48-.87.25-1.66,1.01-2.54,1.31-1.88.65-4.16-.56-4.62-2.51-.1-.44.77-1.04,1.13-1.26.92-.56,2.44-.86,3.51-.75.54.06,1.77.67,1.89-.13.08-.5-.96-.73-1.32-.79-2.24-.36-4.37.29-5.83,1.98-2.65,3.06-4.9,8.71-10.02,7.53-3.78-.87-4.62-4.1-5.12-7.5-.34-2.32.03-4.26-2.37-5.47-.25-.12-1.06-.25-.82-.62.07-.11.98-.3,1.17-.33,1.51-.24,2.92.03,3.54,1.56,1.05,2.61.61,7.35,3.95,8.39,2.19.68,3.95-.48,5.41-2Z"/>
    <path d="M43.7,79.79c-.68-.28-1.52-.66-2.24-1.01-2.91-1.41-5.65-3.27-7.99-5.49-.19-.32.25-1.32.29-1.78s.04-1.31,0-1.79c-.03-.3-.32-.61.04-.81.15-.08.32-.06.45-.12.58-.28,1.18-.64,1.72-.99.33-.16.61.15.85.35.32.27.61.65.93.93,3.63,3.17,8.44,5.58,13.12,6.7,7.25,1.75,18.39.92,20.54-7.78.28-1.15.3-.84.89-1.75.37-.57.72-1.33.95-1.97.1-.28.25-1.37.56-1.37.22,0,.45.97.51,1.2,1.72,6.35-1.05,12.31-6.65,15.49-7.1,4.03-16.66,3.22-23.98.18Z"/>
    <path d="M57.04,34.12c.46-.44.96-.9,1.22-.02.22.71.24,1.86.18,2.6-.04.5-.52,1.55.52,1.24.47-.46.99-.85,1.49-1.28.31-.27.56-.78,1.06-.71.12,1.3.15,2.65-.18,3.92-.21.81-.93,2.08-1.43,2.78-.1.14-.31.21-.42.44-.3.63.15.74.48,1.21.69.99,1.27,2.24.74,3.43-.34.75-1.32,1.44-2.12,1.59-.59.11-.13-.59-.05-.84.14-.46.5-1.79.3-2.2-.04-.08-.33-.26-.43-.28-.34-.06-1.91-.05-2.27,0-1,.15-2.03,1.1-2.4,2.03-.26.66-.23,1.38-.43,1.98-.07.21-1.21.93-1.46.98-1.54.28-2.18-1.75-1.95-2.95s3.39-2.59,4.38-3.39c.69-.56,2.11-2.21,2.3-3.05.08-.35-.26-.68-.61-.53s-.76,1.16-1.02,1.53c-1.23,1.76-3.21,2.35-4.81,3.62-.17.14-.55.63-.72.64-.3.02-.4-.3-.56-.44-1.88-1.58-3.94-2.03-5.35-4.28-.21-.33-.43-1.15-.86-1.14-.73.03-.27.94-.09,1.3.51,1.05,1.54,2.13,2.51,2.77s3.59,1.78,3.81,3.04c.2,1.13-.41,3.03-1.82,2.88-.52-.05-1.62-.75-1.73-1.26-.18-.81-.11-1.6-.62-2.34-.94-1.38-2.76-1.57-4.29-1.38-.35.04-.6.3-.6.67,0,.44.29,1.47.44,1.91.1.29.56.86-.24.67-.85-.21-1.84-.89-2.1-1.75-.36-1.18.15-2.18.79-3.13.19-.28.62-.62.6-.97-.02-.31-.98-1.46-1.2-1.87-.79-1.43-1.12-3.14-1.01-4.77.02-.36,0-1.02.5-.78.56.36,1.79,1.88,2.34,2.02.82.21.36-.99.31-1.31-.07-.5-.09-1.27,0-1.77.03-.19.33-1.17.41-1.28.2-.25.85.27,1.01.42.31.29.77.96.94,1.34.2.46.22,1.35.7,1.51.29.1.74-.5.97-.67,1-.73,2.46-1.03,3.51-.26.33.25,1.36,1.62,1.6,1.59.25-.04,1.01-1.09,1.29-1.35,1.26-1.13,2.71-.76,3.95.19.25.19.46.62.81.52.4-.12.39-.83.5-1.14.19-.54.66-1.27,1.07-1.67Z"/>
    <path d="M49.69,20.1c1.4,1.16,2.11,2.9,2.39,4.7.05.32-.11.74.29.92s.55-.18.71-.41c.52-.72,1.13-2.4,1.56-3.3.17-.36.26-.71.71-.42.55.36,1.49,1.23,2,1.71.69.64,1.32,1.36,1.99,2.01.07.1.08.22.08.34-.04,1.31-.64,3.47-1.02,4.76-.13.46-.48,1.79-.77,2.08-.27.27-.87.55-1.17.83-.21.19-.79.89-.94,1.13-.11.17-.37.93-.42.95-.37.1-.72-.25-1.05-.37-1.68-.65-2.77-.53-4.15.65-.18.15-.32.51-.57.5-.16,0-.61-.57-.78-.71-1.38-1.11-2.57-1.02-4.12-.34-.26.11-.38.36-.72.25-.16-.05-.55-.92-.7-1.15-.23-.33-.61-.74-.91-1.01-.29-.25-.82-.53-1.04-.75-.17-.18-.7-1.77-.8-2.12-.29-1.01-.59-2.31-.78-3.35-.05-.29-.26-1.33-.2-1.52.03-.09.73-.86.86-1,1.02-1.06,2.19-1.95,3.28-2.93.12-.08.45-.16.48.03.68,1.12,1.11,2.88,1.86,3.92.26.36.59.39.83,0,.06-.58.1-1.18.25-1.74.28-1.04.91-2.28,1.62-3.09.11-.12.7-.75.78-.79.33-.15.32.12.45.23Z"/>
    <path d="M80.15,40.06c-.62-.63-.25-2.3-.02-3.07.1-.33.58-1.06.06-1.29-.59-.27-.94.95-1.05,1.37-.45,1.73-.45,4.27,1.94,4.3,2.53.03,3.98-2.65,4.31-4.82.11-.72-.16-1.15.81-.65,2.76,1.41,3.07,4.32.55,6.22-.16.12-.68.34-.74.47-.21.42.32.99.39,1.4.3,1.79-1.15,3.1-2.61,3.8-3.03,1.46-7.79,1.34-10.51-.74-2.39-1.83-1.58-4.09.69-5.51.27-.17.97-.38,1.06-.65.12-.36-.22-1.03-.31-1.41-.45-2.08-.63-4.29.47-6.2,2.06-3.57,7.85-3.15,9.04.91.59,2.01.08,4.6-1.71,5.85-.65.45-1.76.66-2.37.05Z"/>
    <path d="M41.35,63.46c.54.71,1.83,1.49,2.72,1.59.74.09,1.05-.25,1.6.4.93,1.1,1.74,1.94,2.93,2.77,4.15,2.91,10.63,4.41,15.2,1.73.28-.16,1.21-.92,1.4-.96.26-.05.51.11.77.13.96.07,2.13,0,3.05-.3.21-.07,1.34-.8,1.32-.24,0,.16-.65,1.48-.78,1.71-2.05,3.52-6.9,5.21-10.79,5.4-7.81.39-16.15-3-21.64-8.47-.1-.13-.1-.27,0-.41,1.3-1.26,2.26-2.79,3.3-4.26.1-.08.29-.11.4-.03.04.03.41.78.52.94Z"/>
    <path d="M22.38,67.73c.88,1.28,2.59,1.06,3.65.14.2-.18.66-.9.85-.9.15,0,.95.82,1.17.97.71.52,2.04,1.08,2.9,1.16.37.04,1.35-.08,1.6.04.39.19.39,1.54.36,1.93-.21,2.71-3.36,6.77-6.37,5.79-1.51-.49-1.9-3.12-1.18-4.35.24-.41.98-.67,1.43-.61.29.04,1.33.52,1.41.02.06-.37-.04-.55-.37-.71-2.26-1.07-3.91.98-3.77,3.13.07,1.02.59,1.17-.58,1.78-1.51.78-3.26.79-4.76,0-1.69-.89-2.57-2.77-1.22-4.41.26-.32,1.3-1.07,1.69-1.09.24-.01.5.38.68.5.14.09,1.03.65,1.11.67.26.07.46-.01.58-.24.3-.57-.67-.82-1.02-1.09-1.98-1.52-3.02-3.8-2.3-6.29.41-1.41,2.08-3.12,3.58-3.27.67-.06,2.62.06,3.03.67.16.24.23,1.24.31,1.61.12.51.36,1.16.56,1.65.1.26.44.78.47.96.07.4-.74,1.38-1.08,1.6-1.12.75-2.24-.06-2.4-1.27-.06-.43.19-1.43-.34-1.59-.95-.28-.54,1.85-.4,2.33.06.21.28.67.41.84Z"/>
    <path d="M26.3,25.87c1.46,1.53,1.94,3.59,1.16,5.61-.25.66-.87.2-1.38.14-.67-.08-2.3-.24-2.88-.04-.23.08-.4.22-.4.49,0,.34.25,1.4.34,1.79.12.48.69,1.87.64,2.21-.01.09-.05.12-.1.19-.09.09-1.06.55-1.24.61-2.81.97-5.31-.73-6.93-2.94-.18-.24-.42-.64-.07-.85.91-.53,2.41-.78,3.46-.89.51-.06,1.51.19,1.18-.69-.49-.27-1.07-.27-1.61-.45-2.69-.93-4.19-3.94-4.67-6.6-.11-.63.17-.55.67-.53,3.04.12,5.74,1.01,7.14,3.85.17.35.26,1.09.72,1.13.8.06.27-1.38.24-1.8-.04-.54-.02-3.08.43-3.35.12-.07.24-.03.36,0,.54.15,2.25,1.43,2.71,1.85.1.1.16.2.24.29Z"/>
    <path d="M33.67,48.74c-2.6-2.61-3.48-6.36-3.61-9.97,0-.08.03-.15.12-.17.4-.13,1.66,1,1.95,1.31s.83,1.38,1.36.86c.25-.25.11-1.31.14-1.71.1-1.35.33-2.97.66-4.26.1-.41.28-1.14.43-1.5.09-.22.31-.23.49-.09.16.13.95,1.1,1.05,1.3.29.54.03,1.38,0,1.98-.08,2.6.16,3.99,1.51,6.19.11.18.45.51.47.67.03.21-.52.85-.66,1.1-1.21,2.21-.81,4.32,1.5,5.48.25.13.75.11.31.54-.06.06-1.29.81-1.37.84-.37.14-.9-.18-1.25-.35-1.12-.54-2.24-1.34-3.1-2.21Z"/>
    <path d="M67.47,39.2c.37-.29,1.29-1.15,1.24-.15-.21,4.66-1.72,8.86-5.82,11.38-.39.24-1.65,1-2.05.91-.08-.02-1.41-.82-1.47-.88-.12-.12-.23-.18-.08-.36.11-.13,1.07-.54,1.36-.78,1.5-1.22,1.45-3.23.57-4.78-.19-.34-.68-.86-.65-1.21.02-.24.91-1.43,1.1-1.83.81-1.66,1.05-4.13.83-5.95-.03-.21-.16-.35-.15-.57.02-.32,1.14-1.89,1.4-1.89.28,0,.5.83.57,1.07.46,1.56.69,3.56.82,5.17.04.5-.23,1.47.43,1.58.33.05.7-.63.93-.87.33-.35.6-.56.97-.85Z"/>
    <path d="M39.24,35.93c-.29.29-.53-.22-.72-.38-.13-.12-.32-.22-.45-.34-1-.92-1.58-1.98-2.48-2.97-.93-1.02-3.85-3.35-4.03-4.6-.29-2.02,3.17-.32,3.9.17.44.07.53-.21.52-.59-.03-.82-.31-1.8-.36-2.64-.09-1.48,0-3.1.14-4.57.06-.57,0-1.56.44-1.99.07-.07.43-.31.53-.33.4-.07,1.02.35,1.1.75.13.69-.04,1.86,0,2.63.21,3.56.92,7.04,1.87,10.47.08.28.29.68.33.95.06.42-.43,1.35-.55,1.87-.06.26-.19,1.5-.25,1.57Z"/>
    <path d="M62.55,18c.27.32.25.63.33.99.48,2.4.34,5.27-.02,7.71-.07.5-.39,1.07.45,1.1l1.82-.9c.76-.27,2.2-.58,2.08.65s-3.4,3.95-4.34,5.02c-1.04,1.18-1.62,2.32-2.96,3.29-.1.07-.19.15-.32.14-.2-.48-.13-1.01-.23-1.52-.11-.53-.47-1.09-.59-1.55-.14-.55.69-2.7.87-3.41.77-3.02,1.16-6.14,1.31-9.25.03-.58-.17-1.92.23-2.3s1-.44,1.38,0Z"/>
    <path d="M32.03,48.17c.15.15.31.5.49.69.34.37.81.84,1.18,1.18.17.16.58.3.57.57,0,.18-.67.78-.81.97-2.37,3.14-2.48,6.85-1.02,10.42.09.22.54.95.55,1.1,0,.51-1.17.23-1.44.16-3.12-.88-2.44-6.08-3.82-8.44-.27-.46-.69-.66-.55-1.24.35-1.46,2.5-3.99,3.67-4.96.33-.27.82-.8,1.19-.44Z"/>
    <path d="M64.97,51.1c.45.3.91.69,1.33,1.04,1.49,1.27,2.94,2.76,4.11,4.33.03.17-.22.84-.26,1.07-.06.31-.13,1.43-.33,1.59-.36.29-.86-.86-1.04-1.11-.57-.78-1.68-2.22-2.42-2.78-.54-.41-1.01.11-.57.71.63.88,1.65,1.75,2.33,2.7.22.31,1.15,1.76,1.22,2.02.13.5-.28,1.13-.59,1.51-.26.32-1.06,1.07-1.48.92-.19-.06-.37-1.2-.46-1.47-.81-2.48-3.02-4.77-5.14-6.22-.12-.08-.86-.3-.52-.54.37-.25,1.43.25,1.79.07.46-.22-.2-1.39-.38-1.69-.13-.21-.76-.9-.73-1.07.04-.2,1.24-.76,1.5-.92.86-.51.64-.85,1.65-.19Z"/>
    <path d="M39.3,57.18c-1.42,1.51-3.04,4.33-4.69,5.41-.88.57-.92-.06-1.26-.8-1.51-3.31-1.36-7.47,1.26-10.18.24-.25.35-.45.73-.38.18.04,1.53.79,1.59.91.1.19-.35.6-.46.76-.19.3-.86,1.35-.86,1.63.01.84,1.21.28,1.74.25.92-.05,2.03.22,2.4,1.16.29.73-.02.76-.47,1.24Z"/>
    <path d="M31.87,38.49c-.42-.33-1.67-1.19-2.14-1.25-.21-.03-.46.02-.54.24-.12,1.12.07,2.27.08,3.4-.36.07-.57-.14-.85-.33-2.15-1.48-4.27-5.14-4.56-7.72-.06-.54.84-.39,1.23-.37,2.97.15,5.68,1.52,7.81,3.53l.13.44-.31,2.45c-.29.32-.59-.17-.86-.39Z"/>
    <path d="M49.58,50.8s.22.36.3.45c1.36,1.35,3,.46,4.19-.59l1.41.19c.27.22-.07.62-.15.87-.24.78-.42,1.66-.53,2.47-.03.25.07.76-.15.92-.32.22-1.62.07-2.09.31-.39-.17-.55-.57-.87-.84-1.78-1.5-4.14-.95-5.43.85-.41-.16-2.05-.13-2.24-.38-.11-.15-.11-1.53-.22-1.84-.05-.58-.57-1.46-.62-1.95-.06-.63.54-.41.95-.46.13-.02.24-.13.37-.14.31-.03,1.14.77,1.52.97.75.38,1.45.5,2.22.07.33-.19.81-.77,1-.86.09-.04.25-.07.34-.02Z"/>
    <path d="M41.52,50.66c.51-.1.84.93.98,1.34.29.85.38,1.58.47,2.45.02.21.24.53.03.69-.09.07-1.12.31-1.38.4-.23.08-.6.36-.82.3-.14-.04-.53-.82-.69-1.02-.43-.52-1.16-.86-1.84-.95-.6-.07-1.53.22-.87-.69.85-1.17,2.71-2.23,4.12-2.52Z"/>
    <path d="M59.11,54.38c-.19.12-.46.39-.6.58-.16.22-.39.87-.61.89-.23.02-.74-.34-1-.43-.36-.12-1.07-.09-1.21-.43-.05-.13.1-.35.11-.53.09-1.17.34-2.5.95-3.55.05-.08.11-.19.2-.23.2-.09,1.02.19,1.28.29,1.01.37,2.74,1.43,3.24,2.39.35.67-.48.45-.85.49-.5.06-1.08.25-1.51.53Z"/>
    <path d="M41.58,46.89c.67-.02,1.77.28,2.2.83.34.42,1.06,2.07.21,2.21-1.36.22-2.4-.44-2.87-1.69-.27-.73-.55-1.32.46-1.35Z"/>
    <path d="M56.93,46.89c1.16-.11,1.07.23.76,1.18-.45,1.35-1.39,2.03-2.85,1.86-.51-.06-.45-.52-.39-.96.19-1.37,1.18-1.96,2.48-2.09Z"/>
  </g>
  <g>
    <path d="M121.68,30.63l-2.22.33c-.56.06-.83.27-.83.62v30.82c0,.62.39.93,1.17.93h5.99c1.14,0,2.16-.32,3.04-.97.88-.64,1.79-1.95,2.73-3.92l1.98-4.25c.08-.14.16-.21.24-.19.11.02.13.13.07.33l-2.15,9.64c-.05.21-.09.33-.12.38s-.06.07-.1.07c-.18,0-.45-.12-.81-.35-.37-.23-.94-.35-1.72-.35h-18.35c-.13,0-.19-.05-.19-.14,0-.08.08-.13.24-.14l2.22-.33c.56-.06.84-.27.84-.62v-30.92c0-.35-.28-.56-.84-.62l-2.22-.33c-.16-.02-.24-.06-.24-.14,0-.1.06-.14.19-.14h11.12c.13,0,.19.05.19.14,0,.08-.08.13-.24.14Z"/>
    <path d="M160.81,49.55l-.86-16.01c-.05-.6-.22-1.1-.51-1.48-.29-.38-.8-.68-1.51-.88l-2.39-.55c-.13-.05-.19-.1-.19-.14,0-.1.06-.14.19-.14h8.66c.13,0,.19.05.19.14,0,.06-.1.12-.29.17l-1.96.57c-.56.16-1,.45-1.32.87-.33.42-.47.9-.42,1.44l.88,15.77c.05.86.1,1.71.16,2.55.06.84.08,1.7.08,2.58,0,1.83-.37,3.5-1.1,5-.73,1.5-1.89,2.7-3.47,3.59-1.58.89-3.65,1.34-6.19,1.34-2.8,0-5.11-.41-6.94-1.24-1.83-.83-3.2-1.95-4.1-3.38-.91-1.42-1.36-3.04-1.36-4.86,0-.46.02-1.06.05-1.8.03-.74.07-1.49.12-2.24.05-.76.09-1.39.12-1.9l.98-17.37c.03-.33-.25-.54-.84-.62l-2.22-.33c-.16-.03-.24-.08-.24-.14,0-.1.06-.14.19-.14h11.12c.14,0,.21.05.21.14,0,.06-.08.11-.24.14l-2.29.33c-.54.08-.82.32-.84.72l-.98,17.11c-.06,1.21-.1,2.32-.12,3.33-.02,1.01-.02,1.86-.02,2.56,0,3.05.73,5.34,2.19,6.85,1.46,1.51,3.52,2.27,6.18,2.27,2.82,0,5.07-.83,6.75-2.49,1.69-1.66,2.53-3.9,2.53-6.72,0-.99-.02-1.9-.07-2.74-.05-.84-.1-1.61-.14-2.29Z"/>
    <path d="M194.42,54.56c-.24,1.89-.9,3.59-1.98,5.08-1.08,1.5-2.5,2.67-4.26,3.53-1.76.86-3.77,1.29-6.02,1.29-3.1,0-5.79-.72-8.06-2.15-2.27-1.43-4.03-3.42-5.27-5.96-1.24-2.54-1.86-5.5-1.86-8.88s.66-6.56,1.97-9.22c1.31-2.66,3.13-4.75,5.45-6.26,2.32-1.51,5.01-2.27,8.06-2.27,1.59,0,2.91.18,3.95.55,1.04.37,1.84.73,2.4,1.1.56.37.88.55.98.55.14,0,.36-.18.66-.55.29-.37.58-.73.85-1.1.27-.37.44-.55.5-.55.11,0,.19.1.24.31l2.51,8.85c.06.24.02.37-.14.41-.18.05-.32-.06-.43-.31-1.21-3.12-2.71-5.36-4.5-6.72-1.79-1.36-3.81-2.04-6.05-2.04s-4.06.6-5.74,1.8c-1.68,1.2-3,2.94-3.96,5.22-.96,2.28-1.44,5.05-1.44,8.31,0,3.66.52,6.74,1.57,9.24s2.51,4.41,4.37,5.7c1.86,1.3,4.02,1.94,6.47,1.94s4.64-.72,6.27-2.16c1.64-1.44,2.73-3.37,3.27-5.79.03-.11.07-.16.12-.14.08,0,.11.06.1.19Z"/>
    <path d="M205.47,62.51c0,.35.28.56.84.62l2.22.33c.16.02.24.06.24.14,0,.1-.06.14-.19.14h-11.12c-.13,0-.19-.05-.19-.14,0-.08.08-.13.24-.14l2.22-.33c.56-.06.84-.27.84-.62v-30.92c0-.35-.28-.56-.84-.62l-2.22-.33c-.16-.02-.24-.06-.24-.14,0-.1.06-.14.19-.14h11.12c.13,0,.19.05.19.14,0,.08-.08.13-.24.14l-2.22.33c-.56.06-.84.27-.84.62v30.92Z"/>
    <path d="M212.19,63.6c0-.08.06-.13.19-.14l2.36-.33c.49-.06.74-.28.74-.64v-30.82c0-.38-.25-.61-.76-.69l-2.34-.33c-.13-.03-.19-.09-.19-.17s.06-.12.19-.12h10.5c3.85,0,7.22.74,10.12,2.23,2.89,1.49,5.15,3.59,6.76,6.32s2.42,5.97,2.42,9.72c0,3.17-.7,5.88-2.09,8.14-1.39,2.26-3.32,3.99-5.8,5.19-2.47,1.2-5.33,1.8-8.58,1.8h-13.34c-.13,0-.19-.05-.19-.14ZM225.72,63.37c2.16,0,4.1-.55,5.8-1.66,1.7-1.11,3.04-2.79,4.02-5.07.98-2.27,1.47-5.16,1.47-8.66,0-5.45-1.23-9.69-3.69-12.72-2.46-3.02-5.93-4.53-10.41-4.53h-2.5v31.8c0,.56.27.84.81.84h4.51Z"/>
    <path d="M280.88,64.27c-1.56,0-3.03-.24-4.41-.72-1.38-.48-2.7-1.26-3.96-2.34-1.03.89-2.28,1.62-3.75,2.19-1.46.57-3.32.86-5.56.86-2.64,0-4.68-.64-6.13-1.93-1.45-1.29-2.17-3-2.17-5.13,0-2.43.87-4.48,2.62-6.14,1.75-1.66,4.31-2.64,7.68-2.92-.32-1.53-.48-3.08-.48-4.65,0-1.8.34-3.4,1.01-4.81.68-1.41,1.65-2.52,2.91-3.34,1.26-.82,2.77-1.23,4.52-1.23s3.18.54,4.29,1.61c1.11,1.07,1.67,2.44,1.67,4.09,0,2.39-.86,4.27-2.56,5.64-1.71,1.38-3.98,2.22-6.81,2.54.8,2.59,2.03,5.07,3.7,7.44.62.87,1.2,1.66,1.75,2.35.55.69,1.08,1.31,1.59,1.85,1.34-1.18,2.26-2.39,2.78-3.64.52-1.25.78-2.29.78-3.14,0-.67-.1-1.23-.31-1.68-.21-.45-.41-.87-.62-1.26-.21-.39-.31-.82-.31-1.3,0-.59.23-1.11.68-1.55.45-.45,1.04-.67,1.75-.67s1.31.28,1.83.85c.52.56.78,1.41.78,2.54,0,3.91-2.39,7.26-7.18,10.04,1.03,1.08,2.04,1.86,3.02,2.33.98.47,2.05.7,3.21.7,2.2,0,3.96-.8,5.31-2.4s2.02-4.04,2.02-7.31c0-2.93-.5-5.78-1.5-8.56-1-2.78-2.43-5.27-4.27-7.47-2.05-2.45-4.41-4.4-7.07-5.86-2.66-1.46-5.5-2.18-8.51-2.18-3.47,0-6.12.76-7.96,2.29-1.84,1.53-2.76,3.5-2.76,5.92,0,.94.16,1.68.49,2.23.33.55.65,1.06.97,1.54.32.48.48,1.07.48,1.79,0,.6-.18,1.1-.55,1.49-.37.39-.85.58-1.46.58-.95,0-1.72-.42-2.29-1.26s-.86-2.04-.86-3.6c0-2.23.57-4.19,1.72-5.88s2.76-3.01,4.85-3.96c2.09-.95,4.57-1.42,7.43-1.42,3.04,0,5.91.73,8.61,2.18,2.7,1.46,5.11,3.44,7.2,5.95,1.85,2.19,3.27,4.69,4.27,7.48,1,2.79,1.5,5.7,1.5,8.72,0,3.58-.87,6.33-2.62,8.25-1.75,1.92-4.19,2.89-7.32,2.89ZM259.62,55.61c0,2.23.58,3.97,1.75,5.22,1.17,1.26,2.83,1.89,4.97,1.89,1.35,0,2.5-.17,3.45-.5s1.75-.76,2.42-1.26c-1.07-.97-2.1-2.2-3.1-3.67-1.02-1.51-1.84-3.01-2.47-4.51-.63-1.49-1.1-2.97-1.42-4.44-1.18.22-2.19.71-3.03,1.46-.84.75-1.48,1.64-1.92,2.67-.44,1.03-.66,2.08-.66,3.15ZM268.78,41.42c0,2.15.31,4.26.93,6.35,1.59-.35,2.93-1.18,4.01-2.49s1.62-3.19,1.62-5.64c0-1.49-.21-2.72-.62-3.66-.41-.95-1.05-1.42-1.91-1.42-1.07,0-2,.62-2.81,1.87-.81,1.25-1.22,2.91-1.22,5Z"/>
    <path d="M328.5,42.66c0,2.16-.48,4.04-1.44,5.64-.96,1.6-2.3,2.84-4.01,3.72-1.71.88-3.69,1.32-5.93,1.32-1.19,0-2.31-.11-3.36-.32-1.05-.21-2.04-.55-2.96-1.01v10.5c0,.33.25.54.74.62l2.36.33c.13.03.19.08.19.14,0,.1-.06.14-.19.14h-11.09c-.14,0-.21-.05-.21-.14,0-.06.07-.11.21-.14l2.36-.36c.48-.06.72-.25.72-.57v-30.9c0-.37-.22-.58-.67-.64l-2.46-.36c-.11-.02-.17-.06-.17-.14,0-.1.06-.14.19-.14h10.62c2.99,0,5.62.51,7.89,1.54,2.27,1.03,4.04,2.46,5.31,4.31s1.91,4,1.91,6.47ZM310.79,30.73v20.95c.84.41,1.68.7,2.52.86.84.16,1.63.24,2.4.24,1.56,0,2.94-.42,4.14-1.25,1.2-.84,2.14-2.02,2.81-3.55.68-1.53,1.01-3.34,1.01-5.43,0-2.48-.44-4.6-1.31-6.37-.87-1.77-2.09-3.11-3.64-4.04s-3.33-1.4-5.33-1.4h-2.6Z"/>
    <path d="M333.94,63.6c0,.1-.05.14-.14.14h-6.85c-.11,0-.17-.05-.17-.14,0-.06.06-.11.19-.14l1.1-.33c.43-.13.85-.41,1.26-.86.41-.45.77-1.18,1.07-2.22l8.23-27.51c.29-.92-.07-1.52-1.07-1.79-.27-.16-.41-.25-.41-.26,0-.1.06-.14.19-.14h7.51c.13,0,.19.05.19.14,0,.08-.14.16-.41.24-.46.03-.74.12-.82.25-.09.14-.07.39.06.75l9.81,30.49c.24.75.78,1.15,1.62,1.22.14.03.21.09.21.17,0,.1-.06.14-.17.14h-8.95c-.11,0-.17-.05-.17-.14,0-.05.08-.1.24-.14l1.29-.14c.68-.14.91-.56.67-1.26l-3.44-10.81h-11.55l-2.65,8.88c-.27.86-.2,1.54.2,2.03.41.49,1.01.85,1.83,1.07l.91.24c.13.03.19.08.19.14ZM333.58,50.84h11.28l-5.82-18.3-5.46,18.3Z"/>
    <path d="M383.27,41.87c0,2.19-.62,4.07-1.87,5.62-1.25,1.55-2.95,2.64-5.09,3.26l6.8,11.05c.4.64.82,1.05,1.28,1.24.45.19.94.33,1.47.43.16.03.24.08.24.14,0,.1-.06.14-.19.14h-9.54c-.14,0-.21-.05-.21-.14,0-.05.08-.1.24-.14l1.24-.19c.73-.16.84-.68.33-1.55l-6.25-10.43c-2.61-.03-4.68-.47-6.23-1.31v12.31c0,.48.28.76.83.84l2.22.33c.16.02.24.06.24.14,0,.1-.06.14-.19.14h-11.12c-.13,0-.19-.05-.19-.14,0-.08.08-.13.24-.14l2.22-.33c.56-.08.84-.36.84-.84v-30.7c0-.35-.28-.56-.84-.62l-2.22-.33c-.16-.02-.24-.06-.24-.14,0-.1.06-.14.19-.14h10.64c3.21,0,5.95.48,8.21,1.43,2.26.95,3.98,2.29,5.18,4.02,1.19,1.73,1.79,3.75,1.79,6.07ZM365.48,30.75v18.8c.78.45,1.63.76,2.55.93.92.17,1.85.26,2.79.26,2.27,0,4.09-.74,5.45-2.22,1.36-1.48,2.04-3.67,2.04-6.58,0-2.16-.44-4.09-1.31-5.77-.87-1.69-2.08-3.01-3.6-3.97-1.53-.96-3.28-1.44-5.27-1.44h-2.65Z"/>
    <path d="M389.95,30.35h19.75c.43,0,.83-.11,1.2-.35.37-.23.62-.35.75-.35.03,0,.06.02.1.07.03.05.07.17.12.38l1.5,8.4c.05.21.02.32-.07.33-.1.03-.18-.03-.24-.19-.86-2.26-1.65-3.96-2.39-5.09-.73-1.14-1.46-1.89-2.17-2.27-.72-.37-1.46-.56-2.22-.56h-3.86v31.78c0,.35.28.56.84.62l2.22.33c.16.02.24.06.24.14,0,.1-.06.14-.19.14h-11.12c-.13,0-.19-.05-.19-.14,0-.08.08-.13.24-.14l2.22-.33c.56-.06.84-.27.84-.62v-31.78h-3.86c-.78,0-1.53.21-2.24.63-.72.42-1.44,1.2-2.16,2.34-.72,1.14-1.51,2.79-2.37,4.95-.06.16-.14.22-.24.19-.1-.02-.12-.13-.07-.33l1.5-8.4c.05-.21.09-.33.12-.38s.06-.07.1-.07c.1,0,.29.12.6.35.3.23.66.35,1.07.35Z"/>
    <path d="M424.78,63.6c0,.1-.06.14-.19.14h-9.16c-.11,0-.17-.05-.17-.14,0-.05.07-.1.21-.14l1.91-.55c.56-.16,1.01-.41,1.35-.76.34-.35.51-.87.51-1.55v-25.26c0-.24-.02-.42-.05-.54-.03-.12-.14-.31-.31-.56l-2.17-3.41c-.05-.1-.1-.17-.15-.24-.06-.06-.08-.12-.08-.17s.06-.07.19-.07h5.32c.13,0,.32.21.57.62l18.16,28.32v-25.79c0-.68-.18-1.2-.54-1.56-.36-.36-.82-.61-1.37-.75l-3.01-.55c-.16-.05-.24-.1-.24-.14,0-.1.06-.14.19-.14h9.16c.13,0,.19.05.19.14,0,.05-.08.1-.24.14l-1.91.55c-.54.14-.99.39-1.34.75-.35.36-.52.88-.52,1.56v26c0,.19.03.35.08.49.06.14.12.27.2.39l1.65,2.53c.25.41.38.66.38.74,0,.06-.08.1-.24.1h-5.03c-.25,0-.38-.11-.38-.33,0-.17-.06-.37-.19-.6l-17.92-27.67v25.48c0,.67.17,1.18.52,1.54.35.36.79.61,1.31.75l3.05.55c.16.05.24.1.24.14Z"/>
    <path d="M447.78,30.49c0-.1.06-.14.19-.14h19.47c.51,0,.94-.11,1.3-.35.36-.23.58-.35.66-.35.05,0,.08.02.11.07s.06.17.11.36l2,7.8c.03.14,0,.22-.07.24-.08.03-.15,0-.21-.12-1.13-1.96-2.12-3.46-2.97-4.51-.85-1.05-1.66-1.77-2.42-2.16-.76-.39-1.59-.58-2.48-.58h-7.47v15.7h6.39c1.21,0,2.08-.27,2.62-.82s.86-1.55.95-3.02c.02-.13.06-.19.14-.19.1-.03.17.05.21.24l2.31,7.63c.05.16.03.25-.05.29-.08.02-.16-.02-.24-.1-.94-1.45-1.77-2.41-2.49-2.9s-1.69-.73-2.9-.73h-6.97v15.51c0,.65.39.98,1.17.98h6.54c.92,0,1.78-.22,2.56-.67.79-.44,1.63-1.32,2.52-2.64.89-1.31,1.95-3.26,3.17-5.83.1-.14.18-.21.26-.19.1.02.12.13.07.33l-2.36,9.64c-.08.3-.15.45-.21.45-.16,0-.43-.12-.8-.35-.37-.23-.95-.35-1.73-.35h-19.21c-.13,0-.19-.05-.19-.14,0-.08.08-.13.24-.14l2.22-.33c.56-.06.84-.27.84-.62v-30.92c0-.35-.28-.56-.84-.62l-2.22-.33c-.16-.02-.24-.06-.24-.14Z"/>
    <path d="M501.15,41.87c0,2.19-.62,4.07-1.87,5.62-1.25,1.55-2.95,2.64-5.09,3.26l6.8,11.05c.4.64.82,1.05,1.28,1.24.45.19.94.33,1.47.43.16.03.24.08.24.14,0,.1-.06.14-.19.14h-9.54c-.14,0-.21-.05-.21-.14,0-.05.08-.1.24-.14l1.24-.19c.73-.16.84-.68.33-1.55l-6.25-10.43c-2.61-.03-4.68-.47-6.23-1.31v12.31c0,.48.28.76.83.84l2.22.33c.16.02.24.06.24.14,0,.1-.06.14-.19.14h-11.12c-.13,0-.19-.05-.19-.14,0-.08.08-.13.24-.14l2.22-.33c.56-.08.84-.36.84-.84v-30.7c0-.35-.28-.56-.84-.62l-2.22-.33c-.16-.02-.24-.06-.24-.14,0-.1.06-.14.19-.14h10.64c3.21,0,5.95.48,8.21,1.43,2.26.95,3.98,2.29,5.18,4.02,1.19,1.73,1.79,3.75,1.79,6.07ZM483.35,30.75v18.8c.78.45,1.63.76,2.55.93.92.17,1.85.26,2.79.26,2.27,0,4.09-.74,5.45-2.22,1.36-1.48,2.04-3.67,2.04-6.58,0-2.16-.44-4.09-1.31-5.77-.87-1.69-2.08-3.01-3.6-3.97-1.53-.96-3.28-1.44-5.27-1.44h-2.65Z"/>
    <path d="M518.09,64.25c-1.54,0-2.81-.21-3.81-.64-.99-.43-1.76-.86-2.29-1.3-.53-.44-.9-.66-1.11-.66-.13,0-.33.22-.61.67-.28.45-.56.89-.85,1.32-.29.44-.5.66-.64.66-.19,0-.32-.1-.38-.31l-1.91-9.52c-.02-.16,0-.25.05-.29.08-.05.16,0,.24.14,1.11,2.43,2.27,4.34,3.46,5.73,1.19,1.38,2.42,2.36,3.67,2.93,1.26.57,2.54.86,3.84.86,1.81,0,3.27-.51,4.37-1.54,1.1-1.03,1.65-2.48,1.65-4.38,0-1.7-.57-3.24-1.72-4.6-1.15-1.37-3.25-2.62-6.32-3.75-3.64-1.35-6.2-2.87-7.67-4.54-1.47-1.68-2.21-3.66-2.21-5.95,0-1.83.45-3.44,1.35-4.82.9-1.38,2.13-2.46,3.69-3.23,1.56-.77,3.32-1.16,5.27-1.16,1.45,0,2.63.18,3.55.55.92.37,1.65.73,2.17,1.1.52.37.9.55,1.12.55.16,0,.4-.19.72-.56.32-.37.63-.75.93-1.12.3-.37.52-.56.64-.56s.21.09.26.26l2.48,9.71c.03.14.02.24-.05.29-.08.05-.16,0-.24-.14-1.19-2.46-2.39-4.4-3.6-5.81-1.21-1.41-2.45-2.4-3.72-2.98-1.27-.58-2.61-.87-4.01-.87-1.85,0-3.37.57-4.57,1.72-1.2,1.14-1.8,2.74-1.8,4.8,0,1.75.56,3.33,1.67,4.74,1.11,1.41,3.16,2.67,6.13,3.78,2.53.94,4.52,1.93,5.98,2.97,1.46,1.04,2.49,2.16,3.09,3.35.6,1.19.91,2.5.91,3.91,0,1.62-.38,3.09-1.15,4.41-.76,1.32-1.87,2.37-3.33,3.14-1.46.77-3.21,1.16-5.26,1.16Z"/>
  </g>
</svg>