<?xml version="1.0" encoding="UTF-8"?>
<svg id="Layer_1" data-name="Layer 1" xmlns="http://www.w3.org/2000/svg" viewBox="0 0 396.26 174.88">
  <defs>
    <style>
      .cls-1 {
        fill: #fff;
      }

      .cls-2 {
        fill: #0c263b;
      }
    </style>
  </defs>
  <path class="cls-2" d="M388.26,48.84l-22.59-13.03c-2.67-1.62-6.26-2.43-10.78-2.43-4.29,0-7.99.7-11.12,2.09l-1.39-.69h-33.02v.9l-1.56-.9h-33.02l-.17,2.09-3.65-2.09h-33.02l.63,10.5-14.88-8.59c-4.98-2.89-11.53-4.35-19.64-4.35-10.2,0-18.02,2.52-23.46,7.56-.15.14-.29.29-.44.43l-9.64-5.56h-33.02l-.17,2.09-3.65-2.09h-33.02l.41,6.79-9.97-5.75c-2.67-1.62-6.26-2.43-10.78-2.43-4.29,0-7.99.7-11.12,2.09l-1.39-.69h-12.17V13.03L33.02,0H0v33.02l3.13,1.74H0v92.11l22.59,13.03h33.02v-1l1.74,1h64.31v-4.11l7.12,4.11h58.74l.78-12.99,19.2,11.08c5.1,2.89,11.47,4.34,19.12,4.34,7.13,0,13.1-1.15,17.9-3.46v22.92l22.59,13.04c8.8.23,17.41-.73,25.81-2.87,8.4-2.15,15.64-6.03,21.72-11.65,6.08-5.62,9.53-13.24,10.34-22.85l.09-1.52,6.86,3.96h33.02v-45.01h31.28v-28.85c0-8.46-2.67-14.19-8-17.21Z"/>
  <g>
    <path class="cls-1" d="M30.42,2.61v27.81H2.61V2.61h27.81ZM30.42,37.37v86.9H2.61V37.37h27.81Z"/>
    <path class="cls-1" d="M65.17,37.37v5.04c1.5-2.2,3.48-3.82,5.91-4.87,2.43-1.04,5.5-1.56,9.21-1.56,10.78,0,16.16,5.68,16.16,17.03v71.26h-27.81v-49.88c0-4.98-.09-8.23-.26-9.73-.17-1.5-.61-2.26-1.3-2.26s-1.16.47-1.39,1.39c-.23.93-.38,2.81-.43,5.65-.06,2.84-.09,6.34-.09,10.51v44.32h-27.81V37.37h27.81Z"/>
    <path class="cls-1" d="M108.62,124.27l-5.21-86.9h27.81l3.65,61.7h1.39l3.65-61.7h27.81l-5.21,86.9h-53.88Z"/>
    <path class="cls-1" d="M182.4,41.71c4.92-4.52,12.14-6.78,21.64-6.78,19.23,0,29.14,8.81,29.72,26.42v38.93c-.58,17.61-10.49,26.42-29.72,26.42-9.5,0-16.71-2.26-21.64-6.78-4.93-4.52-7.5-11.06-7.73-19.64v-38.93c.23-8.57,2.81-15.12,7.73-19.64ZM202.99,97.07c.35.64.75.96,1.22.96s.87-.32,1.22-.96c.35-.64.52-1.48.52-2.52v-28.5c0-1.62-.58-2.43-1.74-2.43s-1.74.81-1.74,2.43v28.5c0,1.04.17,1.88.52,2.52Z"/>
    <path class="cls-1" d="M282.77,151.12c-10.31,5.39-22.19,8.08-35.63,8.08v-27.81c17.73,0,26.59-2.38,26.59-7.13h-27.81l-5.21-86.9h27.81l3.65,61.7h1.39l3.65-61.7h27.81l-5.21,86.9c-1.04,12.51-6.72,21.46-17.03,26.85Z"/>
    <path class="cls-1" d="M339.77,37.37v5.04c1.51-2.2,3.48-3.82,5.91-4.87,2.43-1.04,5.5-1.56,9.21-1.56,10.78,0,16.16,5.68,16.16,17.03v26.24h-27.81v-4.87c0-4.98-.09-8.23-.26-9.73-.17-1.5-.61-2.26-1.3-2.26s-1.16.47-1.39,1.39c-.23.93-.38,2.81-.44,5.65-.06,2.84-.09,6.34-.09,10.51v44.32h-27.81V37.37h27.81Z"/>
  </g>
</svg>